<?xml version="1.0" encoding="UTF-8"?><svg width="24px" height="24px" viewBox="0 0 24 24" fill="none" xmlns="http://www.w3.org/2000/svg" color="#f31b1b" stroke-width="1.5"><path d="M10 21H9C7.89543 21 7 20.1046 7 19V18C7 16.8954 7.89543 16 9 16H12V8V4L17 3V7L12 8V16V19C12 20.1046 11.1046 21 10 21Z" fill="#f31b1b"></path><path d="M12 16V19C12 20.1046 11.1046 21 10 21H9C7.89543 21 7 20.1046 7 19V18C7 16.8954 7.89543 16 9 16H12ZM12 16V8M12 8V4L17 3V7L12 8Z" stroke="#f31b1b" stroke-width="1.5" stroke-linecap="round" stroke-linejoin="round"></path></svg>